<?xml version="1.0" encoding="iso-8859-1"?>
<!-- Generator: Adobe Illustrator 19.0.0, SVG Export Plug-In . SVG Version: 6.00 Build 0)  -->
<svg version="1.1" id="Layer_1" xmlns="http://www.w3.org/2000/svg" xmlns:xlink="http://www.w3.org/1999/xlink" x="0px" y="0px"
	 viewBox="0 0 512 512" style="enable-background:new 0 0 512 512;" xml:space="preserve">
<g>
	<g>
		<g>
			<path d="M385.347,64.135c-4.465,0-8.084,3.618-8.084,8.084v1.078c0,4.466,3.62,8.084,8.084,8.084
				c4.465,0,8.084-3.618,8.084-8.084v-1.078C393.432,67.753,389.812,64.135,385.347,64.135z"/>
			<path d="M365.839,249.17c-3.773-2.392-8.767-1.268-11.155,2.504l-63.715,100.603c-2.389,3.772-1.268,8.766,2.504,11.155
				c1.342,0.85,2.838,1.256,4.317,1.256c2.677,0,5.299-1.33,6.837-3.76l63.715-100.603
				C370.732,256.554,369.611,251.559,365.839,249.17z"/>
			<path d="M325.98,484.97h29.186c4.465,0,8.084-3.618,8.084-8.084c0-4.466-3.62-8.084-8.084-8.084H325.98
				c-4.465,0-8.084,3.618-8.084,8.084C317.896,481.351,321.516,484.97,325.98,484.97z"/>
			<path d="M286.438,374.526c-3.774-2.385-8.768-1.259-11.153,2.515l-0.249,0.395c-2.385,3.774-1.259,8.768,2.515,11.153
				c1.341,0.847,2.835,1.251,4.312,1.251c2.681,0,5.303-1.332,6.841-3.766l0.249-0.394
				C291.338,381.906,290.212,376.912,286.438,374.526z"/>
			<path d="M460.8,32.337H210.189v-2.695C210.189,13.298,196.893,0,180.547,0H94.316C77.971,0,64.674,13.298,64.674,29.642v2.695
				H51.2c-28.231,0-51.2,22.969-51.2,51.2v323.368c0,28.231,22.969,51.2,51.2,51.2h171.841v2.695c0,28.231,22.969,51.2,51.2,51.2
				h132.664c28.231,0,51.2-22.969,51.2-51.2v-2.695h2.695c28.231,0,51.2-22.969,51.2-51.2V83.537
				C512,55.306,489.031,32.337,460.8,32.337z M80.842,29.642c0-7.43,6.044-13.474,13.474-13.474h86.232
				c7.43,0,13.474,6.044,13.474,13.474v67.368H80.842V29.642z M16.168,83.537c0-19.317,15.716-35.032,35.032-35.032h13.474v48.505
				H16.168V83.537z M441.937,460.8c0,19.317-15.716,35.032-35.032,35.032H274.241c-19.316,0-35.032-15.715-35.032-35.032v-2.695
				h202.727V460.8z M441.937,441.937H239.21V262.467c0-19.317,15.716-35.032,35.032-35.032h132.664
				c19.316,0,35.032,15.715,35.032,35.032V441.937z M495.832,406.905c0,19.317-15.716,35.032-35.032,35.032h-2.695V262.467
				c0-28.231-22.969-51.2-51.2-51.2H274.241c-28.231,0-51.2,22.969-51.2,51.2v179.469H51.2c-19.316,0-35.032-15.715-35.032-35.032
				V113.179h479.663V406.905z M495.832,97.011H210.189V48.505H460.8c19.316,0,35.032,15.715,35.032,35.032V97.011z"/>
			<path d="M417.684,64.135c-4.465,0-8.084,3.618-8.084,8.084v1.078c0,4.466,3.62,8.084,8.084,8.084s8.084-3.618,8.084-8.084v-1.078
				C425.768,67.753,422.149,64.135,417.684,64.135z"/>
			<path d="M450.021,64.135c-4.465,0-8.084,3.618-8.084,8.084v1.078c0,4.466,3.62,8.084,8.084,8.084
				c4.465,0,8.084-3.618,8.084-8.084v-1.078C458.105,67.753,454.486,64.135,450.021,64.135z"/>
			<path d="M210.728,227.436h1.078c4.465,0,8.084-3.618,8.084-8.084c0-4.466-3.62-8.084-8.084-8.084h-1.078
				c-4.465,0-8.084,3.618-8.084,8.084C202.644,223.817,206.264,227.436,210.728,227.436z"/>
			<path d="M60.901,173.541h75.453c4.465,0,8.084-3.619,8.084-8.084s-3.62-8.084-8.084-8.084H60.901
				c-4.465,0-8.084,3.619-8.084,8.084S56.436,173.541,60.901,173.541z"/>
			<path d="M211.806,173.541h237.137c4.465,0,8.084-3.619,8.084-8.084s-3.62-8.084-8.084-8.084H211.806
				c-4.465,0-8.084,3.619-8.084,8.084S207.342,173.541,211.806,173.541z"/>
			<path d="M383.445,299.473c-3.773-2.392-8.767-1.268-11.155,2.504L308.574,402.58c-2.389,3.772-1.268,8.767,2.504,11.155
				c1.342,0.85,2.838,1.256,4.317,1.256c2.678,0,5.299-1.33,6.837-3.76l63.715-100.603
				C388.337,306.856,387.216,301.861,383.445,299.473z"/>
			<path d="M399.368,274.317c-3.775-2.385-8.768-1.258-11.153,2.515l-0.249,0.395c-2.385,3.774-1.259,8.768,2.515,11.153
				c1.341,0.847,2.835,1.251,4.312,1.251c2.681,0,5.303-1.332,6.841-3.766l0.249-0.395
				C404.268,281.696,403.141,276.702,399.368,274.317z"/>
			<path d="M82.459,410.678h118.568c4.465,0,8.084-3.619,8.084-8.084c0-4.466-3.62-8.084-8.084-8.084H82.459
				c-7.43,0-13.474-6.044-13.474-13.474V240.909c0-7.43,6.044-13.474,13.474-13.474h86.232c4.465,0,8.084-3.618,8.084-8.084
				c0-4.466-3.62-8.084-8.084-8.084H82.459c-16.345,0-29.642,13.298-29.642,29.642v140.126
				C52.817,397.38,66.114,410.678,82.459,410.678z"/>
		</g>
	</g>
</g>
<g>
</g>
<g>
</g>
<g>
</g>
<g>
</g>
<g>
</g>
<g>
</g>
<g>
</g>
<g>
</g>
<g>
</g>
<g>
</g>
<g>
</g>
<g>
</g>
<g>
</g>
<g>
</g>
<g>
</g>
</svg>
