<?xml version="1.0" encoding="UTF-8"?>
<svg width="700pt" height="700pt" version="1.1" viewBox="0 0 700 700" xmlns="http://www.w3.org/2000/svg" xmlns:xlink="http://www.w3.org/1999/xlink">
 <defs>
  <symbol id="u" overflow="visible">
   <path d="m23.734-1.4219c-1.2305 0.63672-2.5078 1.1172-3.8281 1.4375-1.3242 0.32031-2.7109 0.48438-4.1562 0.48438-4.293 0-7.6992-1.1953-10.219-3.5938-2.5117-2.4062-3.7656-5.6719-3.7656-9.7969s1.2539-7.3906 3.7656-9.7969c2.5195-2.4062 5.9258-3.6094 10.219-3.6094 1.4453 0 2.832 0.16406 4.1562 0.48438 1.3203 0.32422 2.5977 0.80469 3.8281 1.4375v5.3438c-1.2422-0.83203-2.4609-1.4453-3.6562-1.8438-1.1992-0.39453-2.4609-0.59375-3.7812-0.59375-2.375 0-4.2461 0.76562-5.6094 2.2969-1.3672 1.5234-2.0469 3.6172-2.0469 6.2812 0 2.668 0.67969 4.7617 2.0469 6.2812 1.3633 1.5234 3.2344 2.2812 5.6094 2.2812 1.3203 0 2.582-0.19141 3.7812-0.57812 1.1953-0.39453 2.4141-1.0156 3.6562-1.8594z"/>
  </symbol>
  <symbol id="d" overflow="visible">
   <path d="m17.359-14.094c-0.54297-0.25781-1.0859-0.44531-1.625-0.5625-0.53125-0.125-1.0703-0.1875-1.6094-0.1875-1.5859 0-2.8086 0.51172-3.6719 1.5312-0.85547 1.0234-1.2812 2.4844-1.2812 4.3906v8.9219h-6.2031v-19.375h6.2031v3.1875c0.78906-1.2695 1.7031-2.1953 2.7344-2.7812 1.0312-0.58203 2.2695-0.875 3.7188-0.875 0.19531 0 0.41406 0.011719 0.65625 0.03125 0.25 0.023438 0.60156 0.058594 1.0625 0.10938z"/>
  </symbol>
  <symbol id="a" overflow="visible">
   <path d="m22.312-9.7344v1.7656h-14.484c0.15625 1.4492 0.67969 2.5391 1.5781 3.2656 0.90625 0.73047 2.1602 1.0938 3.7656 1.0938 1.3125 0 2.6484-0.19141 4.0156-0.57812 1.3633-0.39453 2.7656-0.98438 4.2031-1.7656v4.7812c-1.4609 0.55469-2.9219 0.96875-4.3906 1.25-1.4609 0.28125-2.9219 0.42188-4.3906 0.42188-3.5117 0-6.2422-0.89062-8.1875-2.6719-1.9375-1.7812-2.9062-4.2812-2.9062-7.5 0-3.1562 0.95312-5.6406 2.8594-7.4531 1.9141-1.8125 4.5469-2.7188 7.8906-2.7188 3.0391 0 5.4727 0.91797 7.2969 2.75 1.832 1.8359 2.75 4.2891 2.75 7.3594zm-6.3594-2.0625c0-1.1758-0.34375-2.125-1.0312-2.8438s-1.5859-1.0781-2.6875-1.0781c-1.2109 0-2.1875 0.33984-2.9375 1.0156-0.74219 0.66797-1.2031 1.6367-1.3906 2.9062z"/>
  </symbol>
  <symbol id="k" overflow="visible">
   <path d="m11.656-8.7188c-1.293 0-2.2656 0.21875-2.9219 0.65625-0.64844 0.4375-0.96875 1.0859-0.96875 1.9375 0 0.78125 0.25781 1.3984 0.78125 1.8438 0.53125 0.44922 1.2578 0.67188 2.1875 0.67188 1.1641 0 2.1445-0.41406 2.9375-1.25 0.80078-0.84375 1.2031-1.8945 1.2031-3.1562v-0.70312zm9.4688-2.3281v11.047h-6.25v-2.875c-0.83594 1.1797-1.7734 2.0391-2.8125 2.5781-1.0312 0.53125-2.293 0.79688-3.7812 0.79688-2 0-3.6328-0.58203-4.8906-1.75-1.25-1.1758-1.875-2.6953-1.875-4.5625 0-2.2695 0.78125-3.9375 2.3438-5s4.0156-1.5938 7.3594-1.5938h3.6562v-0.48438c0-0.97656-0.38672-1.6914-1.1562-2.1406-0.77344-0.45703-1.9805-0.6875-3.625-0.6875-1.3242 0-2.5586 0.13672-3.7031 0.40625-1.1367 0.26172-2.1953 0.65625-3.1719 1.1875v-4.7344c1.3203-0.32031 2.6484-0.56641 3.9844-0.73438 1.3438-0.16406 2.6797-0.25 4.0156-0.25 3.5 0 6.0234 0.69531 7.5781 2.0781 1.5508 1.375 2.3281 3.6172 2.3281 6.7188z"/>
  </symbol>
  <symbol id="c" overflow="visible">
   <path d="m9.7344-24.875v5.5h6.3906v4.4375h-6.3906v8.2031c0 0.90625 0.17578 1.5234 0.53125 1.8438 0.36328 0.3125 1.0781 0.46875 2.1406 0.46875h3.1719v4.4219h-5.2969c-2.4492 0-4.1836-0.50781-5.2031-1.5312-1.0234-1.0195-1.5312-2.7539-1.5312-5.2031v-8.2031h-3.0781v-4.4375h3.0781v-5.5z"/>
  </symbol>
  <symbol id="j" overflow="visible">
   <path d="m16.156-16.531v-10.375h6.2188v26.906h-6.2188v-2.7969c-0.85547 1.1367-1.7969 1.9688-2.8281 2.5-1.0234 0.53125-2.2109 0.79688-3.5625 0.79688-2.3867 0-4.3438-0.94531-5.875-2.8438-1.5312-1.8945-2.2969-4.3359-2.2969-7.3281 0-2.9766 0.76562-5.4141 2.2969-7.3125 1.5312-1.9062 3.4883-2.8594 5.875-2.8594 1.3438 0 2.5312 0.27344 3.5625 0.8125 1.0312 0.53125 1.9727 1.3672 2.8281 2.5zm-4.0781 12.531c1.3203 0 2.332-0.48438 3.0312-1.4531 0.69531-0.96875 1.0469-2.375 1.0469-4.2188s-0.35156-3.25-1.0469-4.2188c-0.69922-0.96875-1.7109-1.4531-3.0312-1.4531-1.3242 0-2.3359 0.48438-3.0312 1.4531-0.6875 0.96875-1.0312 2.375-1.0312 4.2188s0.34375 3.25 1.0312 4.2188c0.69531 0.96875 1.707 1.4531 3.0312 1.4531z"/>
  </symbol>
  <symbol id="i" overflow="visible">
   <path d="m13.281-4c1.3203 0 2.332-0.48438 3.0312-1.4531 0.69531-0.96875 1.0469-2.375 1.0469-4.2188s-0.35156-3.25-1.0469-4.2188c-0.69922-0.96875-1.7109-1.4531-3.0312-1.4531-1.3242 0-2.3398 0.49219-3.0469 1.4688-0.71094 0.96875-1.0625 2.3711-1.0625 4.2031 0 1.8359 0.35156 3.2422 1.0625 4.2188 0.70703 0.96875 1.7227 1.4531 3.0469 1.4531zm-4.1094-12.531c0.85156-1.1328 1.7969-1.9688 2.8281-2.5 1.0391-0.53906 2.2344-0.8125 3.5781-0.8125 2.3828 0 4.3438 0.95312 5.875 2.8594 1.5391 1.8984 2.3125 4.3359 2.3125 7.3125 0 2.9922-0.77344 5.4336-2.3125 7.3281-1.5312 1.8984-3.4922 2.8438-5.875 2.8438-1.3438 0-2.5391-0.26562-3.5781-0.79688-1.0312-0.53906-1.9766-1.375-2.8281-2.5v2.7969h-6.2031v-26.906h6.2031z"/>
  </symbol>
  <symbol id="f" overflow="visible">
   <path d="m0.4375-19.375h6.1875l5.2031 13.156 4.4375-13.156h6.1875l-8.1562 21.203c-0.8125 2.1562-1.7656 3.6602-2.8594 4.5156-1.0859 0.86328-2.5234 1.2969-4.3125 1.2969h-3.5781v-4.0625h1.9375c1.0508 0 1.8164-0.16797 2.2969-0.5 0.47656-0.33594 0.84766-0.93359 1.1094-1.7969l0.17188-0.53125z"/>
  </symbol>
  <symbol id="h" overflow="visible">
   <path d="m3.25-25.828h6.6562v23.312c0 3.2188-0.875 5.625-2.625 7.2188-1.7422 1.5938-4.3828 2.3906-7.9219 2.3906h-1.3438v-5.0312h1.0312c1.3828 0 2.4297-0.39062 3.1406-1.1719 0.70703-0.77344 1.0625-1.9062 1.0625-3.4062z"/>
  </symbol>
  <symbol id="b" overflow="visible">
   <path d="m12.188-15.406c-1.3672 0-2.4141 0.49609-3.1406 1.4844-0.71875 0.98047-1.0781 2.3984-1.0781 4.25 0 1.8555 0.35938 3.2773 1.0781 4.2656 0.72656 0.99219 1.7734 1.4844 3.1406 1.4844 1.3516 0 2.3828-0.49219 3.0938-1.4844 0.71875-0.98828 1.0781-2.4102 1.0781-4.2656 0-1.8516-0.35938-3.2695-1.0781-4.25-0.71094-0.98828-1.7422-1.4844-3.0938-1.4844zm0-4.4375c3.332 0 5.9375 0.90234 7.8125 2.7031 1.875 1.8047 2.8125 4.293 2.8125 7.4688 0 3.1875-0.9375 5.6836-2.8125 7.4844-1.875 1.793-4.4805 2.6875-7.8125 2.6875-3.3438 0-5.9609-0.89453-7.8438-2.6875-1.8867-1.8008-2.8281-4.2969-2.8281-7.4844 0-3.1758 0.94141-5.6641 2.8281-7.4688 1.8828-1.8008 4.5-2.7031 7.8438-2.7031z"/>
  </symbol>
  <symbol id="g" overflow="visible">
   <path d="m22.453-11.797v11.797h-6.2344v-9c0-1.6875-0.039062-2.8477-0.10938-3.4844-0.074219-0.63281-0.20312-1.1016-0.39062-1.4062-0.24219-0.40625-0.57031-0.71875-0.98438-0.9375-0.41797-0.22656-0.89062-0.34375-1.4219-0.34375-1.293 0-2.3086 0.5-3.0469 1.5-0.73047 1-1.0938 2.3828-1.0938 4.1406v9.5312h-6.2031v-26.906h6.2031v10.375c0.92578-1.1328 1.9141-1.9688 2.9688-2.5 1.0508-0.53906 2.2109-0.8125 3.4844-0.8125 2.2266 0 3.9219 0.6875 5.0781 2.0625 1.1641 1.375 1.75 3.3711 1.75 5.9844z"/>
  </symbol>
  <symbol id="e" overflow="visible">
   <path d="m22.453-11.797v11.797h-6.2344v-9.0312c0-1.6641-0.039062-2.8164-0.10938-3.4531-0.074219-0.63281-0.20312-1.1016-0.39062-1.4062-0.24219-0.40625-0.57031-0.71875-0.98438-0.9375-0.41797-0.22656-0.89062-0.34375-1.4219-0.34375-1.293 0-2.3086 0.5-3.0469 1.5-0.73047 1-1.0938 2.3828-1.0938 4.1406v9.5312h-6.2031v-19.375h6.2031v2.8438c0.92578-1.1328 1.9141-1.9688 2.9688-2.5 1.0508-0.53906 2.2109-0.8125 3.4844-0.8125 2.2266 0 3.9219 0.6875 5.0781 2.0625 1.1641 1.375 1.75 3.3711 1.75 5.9844z"/>
  </symbol>
  <symbol id="t" overflow="visible">
   <path d="m1.9844-25.828h21.703v4.0312l-13.844 16.766h14.25v5.0312h-22.5v-4.0312l13.844-16.766h-13.453z"/>
  </symbol>
  <symbol id="s" overflow="visible">
   <path d="m2.9688-19.375h6.2031v19.375h-6.2031zm0-7.5312h6.2031v5.0469h-6.2031z"/>
  </symbol>
  <symbol id="r" overflow="visible">
   <path d="m15.719-26.906v4.0625h-3.4219c-0.875 0-1.4922 0.16406-1.8438 0.48438-0.34375 0.3125-0.51562 0.85938-0.51562 1.6406v1.3438h5.2969v4.4375h-5.2969v14.938h-6.1875v-14.938h-3.0781v-4.4375h3.0781v-1.3438c0-2.1133 0.58594-3.6719 1.7656-4.6719 1.1758-1.0078 3-1.5156 5.4688-1.5156z"/>
  </symbol>
  <symbol id="q" overflow="visible">
   <path d="m20.922-16.156c0.78906-1.1953 1.7227-2.1094 2.7969-2.7344 1.082-0.63281 2.2695-0.95312 3.5625-0.95312 2.2188 0 3.9102 0.6875 5.0781 2.0625 1.1641 1.375 1.75 3.3711 1.75 5.9844v11.797h-6.2344v-10.094c0.007812-0.15625 0.019531-0.3125 0.03125-0.46875 0.007812-0.16406 0.015625-0.39844 0.015625-0.70312 0-1.3633-0.20312-2.3516-0.60938-2.9688-0.40625-0.625-1.0586-0.9375-1.9531-0.9375-1.1797 0-2.0898 0.48438-2.7344 1.4531-0.63672 0.96875-0.96484 2.3711-0.98438 4.2031v9.5156h-6.2344v-10.094c0-2.1445-0.1875-3.5234-0.5625-4.1406-0.36719-0.625-1.0156-0.9375-1.9531-0.9375-1.1875 0-2.1055 0.49219-2.75 1.4688-0.64844 0.96875-0.96875 2.3594-0.96875 4.1719v9.5312h-6.2344v-19.375h6.2344v2.8438c0.75781-1.0938 1.6289-1.9141 2.6094-2.4688 0.98828-0.5625 2.0781-0.84375 3.2656-0.84375 1.332 0 2.5078 0.32422 3.5312 0.96875 1.0312 0.64844 1.8125 1.5547 2.3438 2.7188z"/>
  </symbol>
  <symbol id="p" overflow="visible">
   <path d="m3.25-25.828h7.4375l9.3906 17.719v-17.719h6.3125v25.828h-7.4375l-9.3906-17.719v17.719h-6.3125z"/>
  </symbol>
  <symbol id="o" overflow="visible">
   <path d="m2.7656-7.5469v-11.828h6.2344v1.9375c0 1.0547-0.011719 2.3711-0.03125 3.9531-0.011719 1.5859-0.015625 2.6406-0.015625 3.1719 0 1.5625 0.039063 2.6875 0.125 3.375 0.082031 0.67969 0.22266 1.1719 0.42188 1.4844 0.25 0.40625 0.57812 0.71875 0.98438 0.9375 0.41406 0.21875 0.89062 0.32812 1.4219 0.32812 1.2891 0 2.3008-0.49219 3.0312-1.4844 0.73828-0.98828 1.1094-2.3672 1.1094-4.1406v-9.5625h6.2031v19.375h-6.2031v-2.7969c-0.92969 1.125-1.918 1.9609-2.9688 2.5-1.043 0.53125-2.1875 0.79688-3.4375 0.79688-2.2422 0-3.9492-0.67969-5.125-2.0469-1.168-1.375-1.75-3.375-1.75-6z"/>
  </symbol>
  <symbol id="n" overflow="visible">
   <path d="m3.25-25.828h11.047c3.2891 0 5.8164 0.73047 7.5781 2.1875 1.7578 1.4609 2.6406 3.5391 2.6406 6.2344 0 2.7188-0.88281 4.8086-2.6406 6.2656-1.7617 1.4609-4.2891 2.1875-7.5781 2.1875h-4.3906v8.9531h-6.6562zm6.6562 4.8281v7.2188h3.6875c1.2891 0 2.2852-0.3125 2.9844-0.9375 0.70703-0.63281 1.0625-1.5312 1.0625-2.6875 0-1.1445-0.35547-2.0312-1.0625-2.6562-0.69922-0.625-1.6953-0.9375-2.9844-0.9375z"/>
  </symbol>
  <symbol id="m" overflow="visible">
   <path d="m2.9688-19.375h6.2031v19.031c0 2.5938-0.625 4.5703-1.875 5.9375-1.2422 1.3633-3.043 2.0469-5.4062 2.0469h-3.0625v-4.0625h1.0625c1.1758 0 1.9844-0.26562 2.4219-0.79688s0.65625-1.5742 0.65625-3.125zm0-7.5312h6.2031v5.0469h-6.2031z"/>
  </symbol>
  <symbol id="l" overflow="visible">
   <path d="m18.625-18.766v5.0469c-0.84375-0.57031-1.6875-0.99219-2.5312-1.2656-0.84375-0.28125-1.7266-0.42188-2.6406-0.42188-1.7305 0-3.0781 0.50781-4.0469 1.5156-0.96094 1-1.4375 2.4062-1.4375 4.2188s0.47656 3.2266 1.4375 4.2344c0.96875 1.0117 2.3164 1.5156 4.0469 1.5156 0.96875 0 1.8828-0.14453 2.75-0.4375 0.875-0.28906 1.6797-0.71875 2.4219-1.2812v5.0625c-0.96875 0.36719-1.9531 0.63281-2.9531 0.8125-0.99219 0.17578-1.9922 0.26562-3 0.26562-3.4922 0-6.2266-0.89453-8.2031-2.6875-1.9688-1.7891-2.9531-4.2852-2.9531-7.4844 0-3.1875 0.98438-5.6758 2.9531-7.4688 1.9766-1.8008 4.7109-2.7031 8.2031-2.7031 1.0195 0 2.0195 0.09375 3 0.28125 0.98828 0.17969 1.9727 0.44531 2.9531 0.79688z"/>
  </symbol>
 </defs>
 <g>
  <path d="m422.86 197.01-72.895 72.898-72.754-72.898-10.129 10.273 72.754 72.754-72.754 72.754 10.129 10.203 72.754-72.754 72.895 72.754 10.059-10.203-72.754-72.754 72.754-72.754z"/>
  <path d="m349.89 0c-74.266 0.019531-145.48 29.539-197.99 82.062-52.5 52.523-81.988 123.75-81.977 198.02 0.011718 74.266 29.523 145.48 82.047 197.99 52.52 52.508 123.75 82.004 198.01 81.996 74.266-0.003906 145.49-29.512 198-82.027s82.012-123.74 82.012-198.01c-0.074219-74.258-29.613-145.45-82.129-197.96s-123.72-82.023-197.98-82.078zm0 545.48c-70.438-0.035156-137.98-28.055-187.75-77.887-49.781-49.832-77.727-117.4-77.688-187.84 0.035156-70.438 28.055-137.98 77.887-187.76 49.832-49.777 117.4-77.723 187.84-77.688 70.438 0.039062 137.98 28.055 187.76 77.891 49.777 49.832 77.723 117.4 77.688 187.84-0.09375 70.434-28.125 137.95-77.941 187.74-49.82 49.793-117.35 77.785-187.79 77.844z"/>

 </g>
</svg>
